# This file uses centimeters as units for non-parametric coordinates.

mtllib glassBlade.mtl
g default
v -0.162354 0.000000 0.188542
v -0.148472 0.000000 0.188028
v -0.148959 0.000000 0.204653
v -0.148087 0.015299 0.198702
v -0.161082 0.014767 0.198909
v -0.161124 0.014282 0.183724
v 0.246952 0.000000 0.191100
v 0.234133 0.016550 0.186642
v 0.233989 0.016736 0.198913
v 0.217301 0.016862 0.198870
v 0.228758 0.000000 0.204653
v 0.227262 0.000000 0.189738
v -0.153797 0.148494 0.148021
v -0.153888 0.148727 0.133507
v -0.150326 0.139662 0.136115
v -0.151171 0.129848 0.140074
v -0.151162 0.129951 0.154104
v -0.137571 0.133776 0.153152
v -0.136745 0.143377 0.149417
v -0.140169 0.151973 0.147174
v 0.081068 0.212157 0.132649
v 0.066924 0.208805 0.133472
v 0.074975 0.201297 0.135253
v 0.081445 0.193632 0.137894
v 0.094171 0.197249 0.136998
v 0.094089 0.197354 0.124034
v 0.088227 0.204922 0.121529
v 0.081478 0.211742 0.120019
v -0.153797 0.148494 -0.148021
v -0.140169 0.151973 -0.147174
v -0.136789 0.143365 -0.149420
v -0.137628 0.133803 -0.153139
v -0.151163 0.129945 -0.154106
v -0.151176 0.129796 -0.140020
v -0.150326 0.139662 -0.136074
v -0.153888 0.148727 -0.133507
v 0.081068 0.212157 -0.132649
v 0.081478 0.211742 -0.120019
v 0.088227 0.204922 -0.121521
v 0.094096 0.197346 -0.124023
v 0.094171 0.197249 -0.136998
v 0.081453 0.193646 -0.137889
v 0.074981 0.201299 -0.135253
v 0.066924 0.208805 -0.133472
v -0.162354 0.000000 -0.188546
v -0.161124 0.014282 -0.183724
v -0.161068 0.014935 -0.198844
v -0.147789 0.015619 -0.198578
v -0.148803 0.000000 -0.204653
v -0.148472 0.000000 -0.188028
v 0.246952 0.000000 -0.191101
v 0.227262 0.000000 -0.189738
v 0.228822 0.000000 -0.204653
v 0.217512 0.016742 -0.198911
v 0.234043 0.016666 -0.198937
v 0.234133 0.016550 -0.186642
v -0.254193 0.396004 0.084497
v -0.254207 0.396021 0.070185
v -0.248135 0.388545 0.071142
v -0.244578 0.379492 0.073578
v -0.244490 0.379269 0.087791
v -0.233795 0.389501 0.086100
v -0.237733 0.398797 0.083655
v -0.244003 0.406018 0.082821
v -0.177281 0.471784 0.071881
v -0.186369 0.462838 0.073378
v -0.178918 0.456758 0.073959
v -0.172269 0.450041 0.075554
v -0.163163 0.458942 0.074067
v -0.163126 0.458905 0.061116
v -0.169848 0.465697 0.059574
v -0.177274 0.471778 0.059070
v -0.177290 0.471775 -0.071878
v -0.177282 0.471768 -0.059067
v -0.169848 0.465697 -0.059569
v -0.163122 0.458900 -0.061110
v -0.163164 0.458943 -0.074067
v -0.172267 0.450058 -0.075550
v -0.178914 0.456763 -0.073958
v -0.186379 0.462829 -0.073375
v -0.254207 0.395992 -0.084503
v -0.244017 0.406004 -0.082827
v -0.237744 0.398786 -0.083656
v -0.233823 0.389499 -0.086098
v -0.244491 0.379272 -0.087790
v -0.244573 0.379482 -0.073566
v -0.248135 0.388545 -0.071137
v -0.254222 0.396011 -0.070190
v -0.427555 0.609358 0.045588
v -0.420155 0.600244 0.046321
v -0.419331 0.599331 0.060711
v -0.411618 0.610729 0.059420
v -0.421175 0.620669 0.058254
v -0.421829 0.619648 0.044931
v -0.401834 0.655602 0.041491
v -0.408957 0.642795 0.042703
v -0.408625 0.643239 0.055691
v -0.397808 0.635063 0.056465
v -0.390761 0.646594 0.055149
v -0.390497 0.646318 0.042398
v -0.409346 0.643253 -0.055631
v -0.409532 0.642764 -0.042475
v -0.402357 0.655645 -0.041292
v -0.391026 0.646390 -0.042345
v -0.391449 0.646677 -0.055016
v -0.398488 0.635148 -0.056401
v -0.428117 0.609404 -0.045621
v -0.422377 0.619711 -0.044889
v -0.421891 0.620741 -0.058319
v -0.412309 0.610795 -0.059473
v -0.420035 0.599393 -0.060837
v -0.420691 0.600299 -0.046337
v -0.162354 0.000000 0.204653
v 0.246952 0.000000 0.204653
v -0.150326 0.139662 0.150326
v 0.088227 0.204922 0.134366
v -0.150326 0.139662 -0.150326
v 0.088227 0.204922 -0.134366
v -0.162354 0.000000 -0.204653
v 0.246952 0.000000 -0.204653
v -0.248135 0.388545 0.085369
v -0.169848 0.465697 0.072464
v -0.169848 0.465697 -0.072464
v -0.248135 0.388545 -0.085369
v -0.427469 0.609350 0.059539
v -0.401754 0.655595 0.054287
v -0.402438 0.655652 -0.054151
v -0.428203 0.609411 -0.059672
vt 0.611290 0.240422
vt 0.608517 0.248641
vt 0.397065 0.248641
vt 0.394290 0.240422
vt 0.617255 0.248921
vt 0.620561 0.240422
vt 0.583399 0.315145
vt 0.422216 0.315115
vt 0.388365 0.249017
vt 0.385022 0.240422
vt 0.591472 0.315204
vt 0.581120 0.320792
vt 0.424486 0.320792
vt 0.414109 0.315200
vt 0.589298 0.320792
vt 0.579620 0.326009
vt 0.425963 0.326009
vt 0.416285 0.320792
vt 0.587972 0.325875
vt 0.545132 0.458805
vt 0.460457 0.458799
vt 0.417611 0.325875
vt 0.553311 0.458677
vt 0.543731 0.464015
vt 0.461855 0.464015
vt 0.452272 0.458679
vt 0.551918 0.464015
vt 0.543180 0.468317
vt 0.462400 0.468311
vt 0.453665 0.464015
vt 0.551416 0.468307
vt 0.529447 0.585839
vt 0.476126 0.585871
vt 0.454163 0.468300
vt 0.537728 0.585314
vt 0.529026 0.591084
vt 0.476538 0.591111
vt 0.467782 0.585349
vt 0.537054 0.591080
vt 0.528647 0.597005
vt 0.476959 0.597042
vt 0.468453 0.591115
vt 0.536314 0.597593
vt 0.527365 0.610326
vt 0.478349 0.610308
vt 0.469231 0.597634
vt 0.534839 0.610581
vt 0.526668 0.617695
vt 0.479029 0.617720
vt 0.470778 0.610589
vt 0.534032 0.617692
vt 0.471630 0.617724
vt 0.610994 0.232434
vt 0.394588 0.232434
vt 0.360175 0.157293
vt 0.385022 0.232624
vt 0.393604 0.016213
vt 0.611978 0.016213
vt 0.620561 0.015353
vt 0.636513 0.364432
vt 0.613157 0.994879
vt 0.392820 0.004883
vt 0.620956 0.994871
vt 0.385022 0.004883
vt 0.351803 0.157770
vt 0.350948 0.357723
vt 0.352094 0.150659
vt 0.351016 0.366855
vt 0.254213 0.283378
vt 0.286969 0.163525
vt 0.289062 0.156087
vt 0.252234 0.290342
vt 0.281714 0.163977
vt 0.250019 0.279837
vt 0.283748 0.156545
vt 0.248035 0.287089
vt 0.277011 0.162103
vt 0.245910 0.275432
vt 0.278914 0.154645
vt 0.244076 0.283172
vt 0.113897 0.144537
vt 0.147027 0.110867
vt 0.152626 0.105015
vt 0.109027 0.149520
vt 0.141940 0.108713
vt 0.110222 0.140898
vt 0.147550 0.103020
vt 0.105330 0.145862
vt 0.137988 0.105282
vt 0.106894 0.136821
vt 0.143469 0.099705
vt 0.101999 0.141794
vt 0.012647 0.021114
vt 0.025964 0.013557
vt 0.032201 0.009336
vt 0.006337 0.024971
vt 0.020524 0.008327
vt 0.008173 0.015195
vt 0.026718 0.004883
vt 0.001411 0.018955
vt 0.719678 0.162506
vt 0.717775 0.155048
vt 0.844065 0.105417
vt 0.849662 0.111255
vt 0.714968 0.164356
vt 0.712941 0.156948
vt 0.854744 0.109109
vt 0.849140 0.103423
vt 0.750779 0.275835
vt 0.882802 0.144941
vt 0.746671 0.280244
vt 0.709735 0.163896
vt 0.707624 0.156490
vt 0.886471 0.141303
vt 0.853215 0.100100
vt 0.858694 0.105676
vt 0.752613 0.283575
vt 0.887664 0.149922
vt 0.748655 0.287493
vt 0.742484 0.283786
vt 0.645060 0.158336
vt 0.644686 0.151069
vt 0.891360 0.146264
vt 0.889790 0.137218
vt 0.964523 0.009353
vt 0.970763 0.013581
vt 0.744455 0.290746
vt 0.645675 0.358243
vt 0.894686 0.142192
vt 0.984090 0.021144
vt 0.976206 0.008337
vt 0.970006 0.004883
vt 0.645634 0.367289
vt 0.990399 0.024996
vt 0.988526 0.015202
vt 0.995310 0.018982
vt 0.610581 0.985358
vt 0.395770 0.985582
vt 0.617642 0.985243
vt 0.388695 0.985523
vt 0.431697 0.881504
vt 0.574444 0.881350
vt 0.581904 0.881402
vt 0.424230 0.881567
vt 0.572998 0.876996
vt 0.433132 0.877142
vt 0.580385 0.876988
vt 0.425740 0.877150
vt 0.572124 0.873072
vt 0.433992 0.873217
vt 0.579393 0.872826
vt 0.426724 0.872986
vt 0.467743 0.730951
vt 0.538080 0.730875
vt 0.545532 0.730846
vt 0.460287 0.730935
vt 0.537188 0.726967
vt 0.468626 0.727039
vt 0.544606 0.726960
vt 0.461205 0.727047
vt 0.536894 0.723468
vt 0.468911 0.723545
vt 0.544267 0.723457
vt 0.461539 0.723549
vt 0.478429 0.623047
vt 0.527195 0.623037
vt 0.534533 0.622871
vt 0.471137 0.622889
vt 0.385021 0.015316
vt 0.636513 0.374353
vt 0.636513 0.150366
vt 0.636513 0.157781
vt 0.360175 0.373949
vt 0.360175 0.363992
vt 0.620561 0.232714
vt 0.360175 0.149963
vt 0.393214 0.995109
vt 0.385416 0.995117
vt 0.612762 0.004883
vt 0.620561 0.004883
vn 0.000000 -1.000000 0.000000
vn 0.000000 -1.000000 0.000000
vn 0.000000 -1.000000 0.000000
vn 0.000000 -1.000000 0.000000
vn -0.996312 0.085806 -0.000000
vn -0.996312 0.085805 -0.000000
vn -0.996312 0.085805 0.000000
vn -0.996312 0.085806 0.000000
vn -0.009903 0.337145 0.941401
vn -0.000900 0.343191 0.939265
vn -0.000844 0.340801 0.940135
vn -0.008734 0.334982 0.942184
vn 0.000000 -1.000000 0.000000
vn 0.000000 -1.000000 0.000000
vn 0.000000 -1.000000 0.000000
vn -0.996312 0.085804 -0.000000
vn -0.996312 0.085805 -0.000000
vn -0.996312 0.085805 -0.000000
vn -0.016265 0.362101 0.931997
vn -0.011610 0.335977 0.941799
vn -0.019675 0.362184 0.931899
vn 0.790584 0.612354 0.000000
vn 0.790584 0.612354 -0.000000
vn 0.790584 0.612354 0.000000
vn 0.790584 0.612354 0.000000
vn 0.000000 -1.000000 0.000000
vn 0.000000 -1.000000 0.000000
vn 0.000000 -1.000000 0.000000
vn -0.008277 0.319367 0.947595
vn -0.010571 0.317910 0.948062
vn -0.011354 0.334632 0.942281
vn 0.790584 0.612354 -0.000001
vn 0.790584 0.612354 0.000000
vn 0.790584 0.612354 -0.000001
vn -0.930709 -0.365761 -0.000000
vn -0.930709 -0.365761 0.000001
vn -0.930709 -0.365761 0.000002
vn -0.930709 -0.365762 -0.000000
vn -0.032174 0.238795 0.970537
vn -0.014454 0.233032 0.972362
vn -0.015075 0.232309 0.972525
vn -0.033820 0.238157 0.970638
vn -0.995168 -0.098188 -0.000000
vn -0.995124 -0.098629 -0.000000
vn -0.996312 0.085805 0.000000
vn -0.930709 -0.365761 0.000000
vn -0.016260 0.294957 0.955372
vn -0.018456 0.303062 0.952792
vn -0.013275 0.230425 0.973000
vn -0.015953 0.217117 0.976015
vn -0.017469 0.215721 0.976299
vn -0.014612 0.230353 0.972998
vn 0.710776 0.703419 0.000000
vn 0.710776 0.703419 -0.000000
vn 0.710775 0.703419 -0.000000
vn 0.710776 0.703419 0.000000
vn 0.756878 0.653557 0.000000
vn 0.756862 0.653574 0.000000
vn 0.710776 0.703419 0.000000
vn 0.790584 0.612354 0.000000
vn -0.014455 0.233031 -0.972362
vn -0.032147 0.238807 -0.970535
vn -0.033791 0.238170 -0.970636
vn -0.015077 0.232307 -0.972526
vn -0.930709 -0.365762 0.000002
vn -0.930709 -0.365762 -0.000000
vn -0.930708 -0.365762 0.000002
vn -0.011619 0.335930 -0.941815
vn -0.016258 0.294943 -0.955377
vn -0.018439 0.302993 -0.952815
vn -0.011368 0.334585 -0.942297
vn -0.013278 0.230426 -0.972999
vn -0.996312 0.085804 0.000001
vn -0.996312 0.085804 0.000001
vn -0.019421 0.362148 -0.931918
vn -0.009903 0.337149 -0.941399
vn -0.015961 0.362073 -0.932013
vn 0.710776 0.703419 0.000002
vn 0.710776 0.703419 0.000002
vn 0.710776 0.703419 -0.000000
vn -0.015944 0.217125 -0.976014
vn -0.014615 0.230353 -0.972997
vn -0.017458 0.215730 -0.976297
vn -0.010602 0.317885 -0.948070
vn -0.008322 0.319334 -0.947606
vn -0.008737 0.335018 -0.942171
vn 0.790584 0.612354 0.000000
vn 0.790584 0.612354 0.000000
vn 0.000000 -1.000000 0.000000
vn 0.000000 -1.000000 0.000000
vn -0.000906 0.343477 -0.939161
vn -0.000853 0.341079 -0.940034
vn -0.775722 -0.631072 0.001696
vn -0.776282 -0.630382 0.002130
vn -0.776291 -0.630370 0.002297
vn -0.775708 -0.631089 0.001845
vn 0.014332 0.126441 0.991871
vn 0.022173 0.129621 0.991316
vn 0.022181 0.129266 0.991362
vn 0.013262 0.125573 0.991996
vn -0.871400 -0.490574 0.000026
vn -0.871320 -0.490715 0.000026
vn -0.775570 -0.631259 0.001699
vn -0.014449 0.180731 0.983426
vn -0.009327 0.175487 0.984438
vn 0.023502 0.128490 0.991432
vn 0.020369 0.121107 0.992431
vn 0.019335 0.119832 0.992606
vn 0.022605 0.127460 0.991586
vn 0.633570 0.773683 -0.001736
vn 0.633110 0.774061 -0.001421
vn 0.633105 0.774065 -0.001554
vn 0.633578 0.773677 -0.001888
vn 0.675154 0.737677 -0.000022
vn 0.675104 0.737723 -0.000022
vn 0.632986 0.774162 -0.001420
vn 0.632526 0.774537 -0.001728
vn 0.632518 0.774544 -0.001880
vn 0.632990 0.774158 -0.001554
vn 0.021677 0.123252 -0.992139
vn 0.024345 0.129557 -0.991273
vn 0.023583 0.128681 -0.991406
vn 0.020796 0.122162 -0.992292
vn -0.009349 0.175538 -0.984428
vn -0.014399 0.180706 -0.983432
vn 0.023214 0.130524 -0.991173
vn 0.016519 0.127797 -0.991663
vn 0.015608 0.127055 -0.991773
vn 0.023215 0.130219 -0.991214
vn -0.775008 -0.631948 0.002145
vn -0.775584 -0.631242 0.001848
vn -0.774999 -0.631959 0.002313
vn -0.775749 -0.631027 0.004307
vn -0.775529 -0.631297 0.004307
vn -0.873738 0.486364 0.005647
vn -0.873741 0.486359 0.005677
vn -0.873757 0.486330 0.005677
vn -0.873759 0.486327 0.005647
vn -0.873689 0.486451 0.005680
vn -0.873687 0.486455 0.005726
vn -0.873741 0.486359 0.005710
vn 0.004091 0.113603 0.993518
vn 0.007676 0.111053 0.993785
vn -0.873739 0.486362 0.005744
vn -0.873757 0.486329 0.005744
vn -0.873757 0.486330 0.005709
vn 0.633122 0.774044 -0.003459
vn 0.632959 0.774178 -0.003458
vn -0.873810 0.486234 0.005723
vn -0.873808 0.486237 0.005678
vn 0.010838 0.114664 -0.993345
vn 0.007782 0.116833 -0.993121
vn -0.996312 0.085804 -0.000001
vn 0.000000 -1.000000 0.000000
vn 0.000001 0.362527 0.931973
vn 0.000000 -1.000000 0.000000
vn 0.790584 0.612354 -0.000000
vn 0.000001 0.324437 0.945907
vn -0.022214 0.313374 0.949370
vn -0.994991 -0.099967 0.000000
vn 0.757027 0.653384 -0.000001
vn -0.012913 0.281824 0.959379
vn -0.995054 -0.099336 0.000000
vn -0.022179 0.313254 -0.949410
vn -0.012907 0.281804 -0.959385
vn 0.757050 0.653358 -0.000001
vn 0.000000 -1.000000 0.000000
vn -0.996312 0.085806 0.000000
vn 0.000000 0.362528 -0.931973
vn 0.790584 0.612354 0.000000
vn 0.000000 -1.000000 0.000000
vn 0.000001 0.324438 -0.945907
vn -0.025959 0.190498 0.981344
vn -0.872052 -0.489413 -0.000001
vn 0.675755 0.737126 -0.000001
vn -0.002200 0.167157 0.985928
vn -0.002366 0.167322 -0.985900
vn 0.675322 0.737523 -0.000001
vn -0.871662 -0.490107 0.000002
vn -0.025758 0.190301 -0.981388
vn -0.873679 0.486470 0.005634
vn -0.776482 -0.630123 0.004453
vn -0.002482 0.114201 0.993455
vn 0.633714 0.773559 -0.003600
vn -0.873671 0.486483 0.005771
vn 0.009985 0.107352 0.994171
vn 0.012817 0.111493 -0.993683
vn -0.873824 0.486209 0.005767
vn 0.632367 0.774660 -0.003590
vn -0.774795 -0.632196 0.004452
vn -0.873819 0.486219 0.005632
vn 0.002199 0.117339 -0.993090
s 1
g pCube5
usemtl aiStandardSurface1SG
f 2/53/1 1/1/2 45/4/3 50/54/4
s 2
f 1/1/5 6/2/6 46/3/7 45/4/8
s 3
f 4/65/9 3/55/10 11/174/11 10/66/12
s 1
f 3/175/13 2/53/1 12/58/14 11/59/15
s 2
f 6/2/6 5/5/16 17/11/17 16/7/18
s 3
f 5/67/19 4/65/9 18/70/20 17/71/21
s 4
f 8/137/22 7/61/23 51/177/24 56/138/25
s 1
f 7/179/26 12/58/14 52/57/27 51/62/28
s 3
f 10/66/12 9/68/29 25/72/30 24/69/31
s 4
f 9/139/32 8/137/22 26/142/33 25/143/34
s 2
f 14/16/35 13/19/36 61/23/37 60/20/38
s 3
f 13/79/39 20/77/40 62/82/41 61/83/42
s 2
f 16/7/18 15/12/43 35/13/44 34/8/45
f 15/12/43 14/16/35 36/17/46 35/13/44
s 3
f 20/77/40 19/73/47 23/74/48 22/78/49
f 19/73/47 18/70/20 24/69/31 23/74/48
f 22/78/49 21/80/50 69/84/51 68/81/52
s 4
f 21/151/53 28/149/54 70/154/55 69/155/56
f 28/149/54 27/145/57 39/146/58 38/150/59
f 27/145/57 26/142/33 40/141/60 39/146/58
s 8
f 30/101/61 29/102/62 85/103/63 84/104/64
s 2
f 29/22/65 36/17/46 86/21/66 85/26/67
s 8
f 32/112/68 31/105/69 43/111/70 42/120/71
f 31/105/69 30/101/61 44/109/72 43/111/70
s 2
f 34/8/45 33/14/73 47/9/74 46/3/7
s 8
f 33/113/75 32/112/68 48/121/76 47/122/77
s 4
f 38/150/59 37/152/78 77/156/79 76/153/80
s 8
f 37/117/81 44/109/72 78/110/82 77/118/83
f 42/120/71 41/127/84 55/133/85 54/128/86
s 4
f 41/144/87 40/141/60 56/138/25 55/140/88
s 1
f 50/54/4 49/56/89 53/169/90 52/57/27
s 8
f 49/172/91 48/121/76 54/128/86 53/60/92
s 2
f 58/28/93 57/31/94 91/35/95 90/32/96
s 3
f 57/91/97 64/89/98 92/94/99 91/95/100
s 2
f 60/20/38 59/24/101 87/25/102 86/21/66
f 59/24/101 58/28/93 88/29/103 87/25/102
s 3
f 64/89/98 63/85/104 67/86/105 66/90/106
f 63/85/104 62/82/41 68/81/52 67/86/105
f 66/90/106 65/92/107 99/96/108 98/93/109
s 4
f 65/163/110 72/161/111 100/166/112 99/167/113
f 72/161/111 71/157/114 75/158/115 74/162/116
f 71/157/114 70/154/55 76/153/80 75/158/115
f 74/162/116 73/164/117 105/168/118 104/165/119
s 8
f 73/129/120 80/124/121 106/130/122 105/134/123
f 80/124/121 79/114/124 83/107/125 82/116/126
f 79/114/124 78/110/82 84/104/64 83/107/125
f 82/116/126 81/115/127 111/125/128 110/126/129
s 2
f 81/34/130 88/29/103 112/33/131 111/38/132
f 90/32/96 89/36/133 107/37/134 112/33/131
s 14
f 89/36/135 94/40/136 108/41/137 107/37/138
f 94/40/136 93/43/139 97/47/140 96/44/141
s 3
f 93/97/142 92/94/99 98/93/109 97/98/143
s 14
f 96/44/141 95/48/144 103/49/145 102/45/146
s 4
f 95/48/147 100/166/112 104/165/119 103/49/148
s 14
f 102/45/146 101/50/149 109/46/150 108/41/137
s 8
f 101/135/151 106/130/122 110/126/129 109/131/152
s 3
f 4/65/9 10/66/12 24/69/31 18/70/20
s 14
f 94/40/136 96/44/141 102/45/146 108/41/137
s 8
f 32/112/68 42/120/71 54/128/86 48/121/76
s 1
f 50/54/4 52/57/27 12/58/14 2/53/1
s 4
f 8/137/22 56/138/25 40/141/60 26/142/33
s 2
f 46/3/7 6/2/6 16/7/18 34/8/45
s 3
f 20/77/40 22/78/49 68/81/52 62/82/41
s 4
f 28/149/54 38/150/59 76/153/80 70/154/55
s 8
f 44/109/72 30/101/61 84/104/64 78/110/82
s 2
f 36/17/46 14/16/35 60/20/38 86/21/66
s 3
f 64/89/98 66/90/106 98/93/109 92/94/99
s 4
f 72/161/111 74/162/116 104/165/119 100/166/112
s 8
f 80/124/121 82/116/126 110/126/129 106/130/122
s 2
f 88/29/103 58/28/93 90/32/96 112/33/131
f 5/5/16 6/2/6 1/1/5 113/6/153
s 1
f 1/1/2 2/53/1 3/175/13 113/6/154
s 3
f 3/55/10 4/65/9 5/67/19 113/176/155
s 1
f 11/59/15 12/58/14 7/179/26 114/180/156
s 4
f 7/61/23 8/137/22 9/139/32 114/63/157
s 3
f 9/68/29 10/66/12 11/174/11 114/173/158
f 19/73/47 20/77/40 13/79/39 115/75/159
s 2
f 13/19/36 14/16/35 15/12/43 115/15/160
f 15/12/43 16/7/18 17/11/17 115/15/160
s 3
f 17/71/21 18/70/20 19/73/47 115/75/159
s 4
f 27/145/57 28/149/54 21/151/53 116/147/161
s 3
f 21/80/50 22/78/49 23/74/48 116/76/162
f 23/74/48 24/69/31 25/72/30 116/76/162
s 4
f 25/143/34 26/142/33 27/145/57 116/147/161
s 2
f 35/13/44 36/17/46 29/22/65 117/18/163
s 8
f 29/102/62 30/101/61 31/105/69 117/106/164
f 31/105/69 32/112/68 33/113/75 117/106/164
s 2
f 33/14/73 34/8/45 35/13/44 117/18/163
s 8
f 43/111/70 44/109/72 37/117/81 118/119/165
s 4
f 37/152/78 38/150/59 39/146/58 118/148/166
f 39/146/58 40/141/60 41/144/87 118/148/166
s 8
f 41/127/84 42/120/71 43/111/70 118/119/165
s 1
f 49/56/89 50/54/4 45/4/3 119/10/167
s 2
f 45/4/8 46/3/7 47/9/74 119/10/168
s 8
f 47/122/77 48/121/76 49/172/91 119/171/169
s 4
f 55/140/88 56/138/25 51/177/24 120/178/170
s 1
f 51/62/28 52/57/27 53/169/90 120/64/171
s 8
f 53/60/92 54/128/86 55/133/85 120/170/172
s 3
f 63/85/104 64/89/98 57/91/97 121/87/173
s 2
f 57/31/94 58/28/93 59/24/101 121/27/174
f 59/24/101 60/20/38 61/23/37 121/27/174
s 3
f 61/83/42 62/82/41 63/85/104 121/87/173
s 4
f 71/157/114 72/161/111 65/163/110 122/159/175
s 3
f 65/92/107 66/90/106 67/86/105 122/88/176
f 67/86/105 68/81/52 69/84/51 122/88/176
s 4
f 69/155/56 70/154/55 71/157/114 122/159/175
s 8
f 79/114/124 80/124/121 73/129/120 123/123/177
s 4
f 73/164/117 74/162/116 75/158/115 123/160/178
f 75/158/115 76/153/80 77/156/79 123/160/178
s 8
f 77/118/83 78/110/82 79/114/124 123/123/177
s 2
f 87/25/102 88/29/103 81/34/130 124/30/179
s 8
f 81/115/127 82/116/126 83/107/125 124/108/180
f 83/107/125 84/104/64 85/103/63 124/108/180
s 2
f 85/26/67 86/21/66 87/25/102 124/30/179
s 14
f 93/43/139 94/40/136 89/36/135 125/39/181
s 2
f 89/36/133 90/32/96 91/35/95 125/39/182
s 3
f 91/95/100 92/94/99 93/97/142 125/99/183
s 4
f 99/167/113 100/166/112 95/48/147 126/51/184
s 14
f 95/48/144 96/44/141 97/47/140 126/51/185
s 3
f 97/98/143 98/93/109 99/96/108 126/100/186
s 8
f 105/134/123 106/130/122 101/135/151 127/136/187
s 14
f 101/50/149 102/45/146 103/49/145 127/52/188
s 4
f 103/49/148 104/165/119 105/168/118 127/52/189
s 2
f 111/38/132 112/33/131 107/37/134 128/42/190
s 14
f 107/37/138 108/41/137 109/46/150 128/42/191
s 8
f 109/131/152 110/126/129 111/125/128 128/132/192
