# Blender v2.83.0 OBJ File: ''
# www.blender.org
mtllib grassBlade.mtl
o glassBlade
v -0.148472 -0.000000 0.188028
v -0.162354 -0.000000 0.188542
v -0.162354 0.000000 -0.188546
v -0.148472 0.000000 -0.188028
v -0.161124 0.014282 0.183724
v -0.161124 0.014282 -0.183724
v -0.148087 0.015299 0.198702
v -0.148959 -0.000000 0.204653
v 0.228758 -0.000000 0.204653
v 0.217301 0.016862 0.198870
v 0.227262 -0.000000 0.189738
v -0.161082 0.014767 0.198909
v -0.151162 0.129951 0.154104
v -0.151171 0.129848 0.140074
v -0.137571 0.133776 0.153152
v 0.234133 0.016550 0.186642
v 0.246952 -0.000000 0.191100
v 0.246952 0.000000 -0.191101
v 0.234133 0.016550 -0.186642
v 0.227262 0.000000 -0.189738
v 0.233989 0.016736 0.198913
v 0.094171 0.197249 0.136998
v 0.081445 0.193632 0.137894
v 0.094089 0.197354 0.124034
v -0.153888 0.148727 0.133507
v -0.153797 0.148494 0.148021
v -0.244490 0.379269 0.087791
v -0.244578 0.379492 0.073578
v -0.140169 0.151973 0.147174
v -0.233795 0.389501 0.086100
v -0.150326 0.139662 0.136115
v -0.150326 0.139662 -0.136074
v -0.151176 0.129796 -0.140020
v -0.153888 0.148727 -0.133507
v -0.136745 0.143377 0.149417
v 0.074975 0.201297 0.135253
v 0.066924 0.208805 0.133472
v 0.081068 0.212157 0.132649
v -0.163163 0.458942 0.074067
v -0.172269 0.450041 0.075554
v 0.081478 0.211742 0.120019
v -0.163126 0.458905 0.061116
v 0.088227 0.204922 0.121529
v 0.088227 0.204922 -0.121521
v 0.081478 0.211742 -0.120019
v 0.094096 0.197346 -0.124023
v -0.140169 0.151973 -0.147174
v -0.153797 0.148494 -0.148021
v -0.244491 0.379272 -0.087790
v -0.233823 0.389499 -0.086098
v -0.244573 0.379482 -0.073566
v -0.137628 0.133803 -0.153139
v -0.136789 0.143365 -0.149420
v 0.074981 0.201299 -0.135253
v 0.081453 0.193646 -0.137889
v 0.066924 0.208805 -0.133472
v -0.151163 0.129945 -0.154106
v -0.161068 0.014935 -0.198844
v -0.147789 0.015619 -0.198578
v 0.081068 0.212157 -0.132649
v -0.163164 0.458943 -0.074067
v -0.163122 0.458900 -0.061110
v -0.172267 0.450058 -0.075550
v 0.094171 0.197249 -0.136998
v 0.234043 0.016666 -0.198937
v 0.217512 0.016742 -0.198911
v -0.148803 0.000000 -0.204653
v 0.228822 0.000000 -0.204653
v -0.254207 0.396021 0.070185
v -0.254193 0.396004 0.084497
v -0.419331 0.599331 0.060711
v -0.420155 0.600244 0.046321
v -0.244003 0.406018 0.082821
v -0.411618 0.610729 0.059420
v -0.248135 0.388545 0.071142
v -0.248135 0.388545 -0.071137
v -0.254222 0.396011 -0.070190
v -0.237733 0.398797 0.083655
v -0.178918 0.456758 0.073959
v -0.186369 0.462838 0.073378
v -0.177281 0.471784 0.071881
v -0.390761 0.646594 0.055149
v -0.397808 0.635063 0.056465
v -0.177274 0.471778 0.059070
v -0.390497 0.646318 0.042398
v -0.169848 0.465697 0.059574
v -0.169848 0.465697 -0.059569
v -0.177282 0.471768 -0.059067
v -0.177290 0.471775 -0.071878
v -0.391449 0.646677 -0.055016
v -0.391026 0.646390 -0.042345
v -0.186379 0.462829 -0.073375
v -0.398488 0.635148 -0.056401
v -0.178914 0.456763 -0.073958
v -0.237744 0.398786 -0.083656
v -0.244017 0.406004 -0.082827
v -0.254207 0.395992 -0.084503
v -0.420035 0.599393 -0.060837
v -0.412309 0.610795 -0.059473
v -0.420691 0.600299 -0.046337
v -0.427555 0.609358 0.045588
v -0.428117 0.609404 -0.045621
v -0.421829 0.619648 0.044931
v -0.422377 0.619711 -0.044889
v -0.421175 0.620669 0.058254
v -0.408625 0.643239 0.055691
v -0.408957 0.642795 0.042703
v -0.401834 0.655602 0.041491
v -0.402357 0.655645 -0.041292
v -0.409532 0.642764 -0.042475
v -0.409346 0.643253 -0.055631
v -0.421891 0.620741 -0.058319
v -0.162354 -0.000000 0.204653
v 0.246952 -0.000000 0.204653
v -0.150326 0.139662 0.150326
v 0.088227 0.204922 0.134366
v -0.150326 0.139662 -0.150326
v 0.088227 0.204922 -0.134366
v -0.162354 0.000000 -0.204653
v 0.246952 0.000000 -0.204653
v -0.248135 0.388545 0.085369
v -0.169848 0.465697 0.072464
v -0.169848 0.465697 -0.072464
v -0.248135 0.388545 -0.085369
v -0.427469 0.609350 0.059539
v -0.401754 0.655595 0.054287
v -0.402438 0.655652 -0.054151
v -0.428203 0.609411 -0.059672
vt 0.610994 0.232434
vt 0.611290 0.240422
vt 0.394290 0.240422
vt 0.394588 0.232434
vt 0.608517 0.248641
vt 0.397065 0.248641
vt 0.351803 0.157770
vt 0.360175 0.157293
vt 0.360175 0.363992
vt 0.350948 0.357723
vt 0.620561 0.232714
vt 0.611978 0.016213
vt 0.620561 0.015353
vt 0.617255 0.248921
vt 0.591472 0.315204
vt 0.583399 0.315145
vt 0.352094 0.150659
vt 0.286969 0.163525
vt 0.289062 0.156087
vt 0.610581 0.985358
vt 0.613157 0.994879
vt 0.393214 0.995109
vt 0.395770 0.985582
vt 0.612762 0.004883
vt 0.393604 0.016213
vt 0.392820 0.004883
vt 0.351016 0.366855
vt 0.252234 0.290342
vt 0.254213 0.283378
vt 0.617642 0.985243
vt 0.574444 0.881350
vt 0.581904 0.881402
vt 0.579620 0.326009
vt 0.587972 0.325875
vt 0.553311 0.458677
vt 0.545132 0.458805
vt 0.278914 0.154645
vt 0.277011 0.162103
vt 0.147027 0.110867
vt 0.152626 0.105015
vt 0.581120 0.320792
vt 0.424486 0.320792
vt 0.422216 0.315115
vt 0.425963 0.326009
vt 0.281714 0.163977
vt 0.250019 0.279837
vt 0.245910 0.275432
vt 0.244076 0.283172
vt 0.109027 0.149520
vt 0.113897 0.144537
vt 0.579393 0.872826
vt 0.572124 0.873072
vt 0.538080 0.730875
vt 0.545532 0.730846
vt 0.572998 0.876996
vt 0.433132 0.877142
vt 0.433992 0.873217
vt 0.431697 0.881504
vt 0.719678 0.162506
vt 0.717775 0.155048
vt 0.844065 0.105417
vt 0.849662 0.111255
vt 0.417611 0.325875
vt 0.460457 0.458799
vt 0.452272 0.458679
vt 0.709735 0.163896
vt 0.714968 0.164356
vt 0.746671 0.280244
vt 0.742484 0.283786
vt 0.750779 0.275835
vt 0.414109 0.315200
vt 0.388365 0.249017
vt 0.707624 0.156490
vt 0.645060 0.158336
vt 0.644686 0.151069
vt 0.426724 0.872986
vt 0.460287 0.730935
vt 0.467743 0.730951
vt 0.752613 0.283575
vt 0.882802 0.144941
vt 0.887664 0.149922
vt 0.744455 0.290746
vt 0.645634 0.367289
vt 0.645675 0.358243
vt 0.424230 0.881567
vt 0.388695 0.985523
vt 0.385022 0.232624
vt 0.385021 0.015316
vt 0.636513 0.157781
vt 0.636513 0.364432
vt 0.543180 0.468317
vt 0.551416 0.468307
vt 0.537728 0.585314
vt 0.529447 0.585839
vt 0.143469 0.099705
vt 0.137988 0.105282
vt 0.025964 0.013557
vt 0.032201 0.009336
vt 0.543731 0.464015
vt 0.461855 0.464015
vt 0.462400 0.468311
vt 0.141940 0.108713
vt 0.110222 0.140898
vt 0.106894 0.136821
vt 0.101999 0.141794
vt 0.006337 0.024971
vt 0.012647 0.021114
vt 0.544267 0.723457
vt 0.536894 0.723468
vt 0.527195 0.623037
vt 0.534533 0.622871
vt 0.537188 0.726967
vt 0.468626 0.727039
vt 0.468911 0.723545
vt 0.461539 0.723549
vt 0.471137 0.622889
vt 0.478429 0.623047
vt 0.894686 0.142192
vt 0.889790 0.137218
vt 0.984090 0.021144
vt 0.990399 0.024996
vt 0.886471 0.141303
vt 0.854744 0.109109
vt 0.858694 0.105676
vt 0.853215 0.100100
vt 0.964523 0.009353
vt 0.970763 0.013581
vt 0.454163 0.468300
vt 0.476126 0.585871
vt 0.467782 0.585349
vt 0.529026 0.591084
vt 0.476538 0.591111
vt 0.528647 0.597005
vt 0.476959 0.597042
vt 0.536314 0.597593
vt 0.534839 0.610581
vt 0.527365 0.610326
vt 0.020524 0.008327
vt 0.008173 0.015195
vt 0.526668 0.617695
vt 0.479029 0.617720
vt 0.478349 0.610308
vt 0.470778 0.610589
vt 0.469231 0.597634
vt 0.988526 0.015202
vt 0.976206 0.008337
vt 0.620561 0.240422
vt 0.360175 0.149963
vt 0.620561 0.004883
vt 0.620956 0.994871
vt 0.360175 0.373949
vt 0.283748 0.156545
vt 0.589298 0.320792
vt 0.580385 0.876988
vt 0.248035 0.287089
vt 0.416285 0.320792
vt 0.712941 0.156948
vt 0.748655 0.287493
vt 0.425740 0.877150
vt 0.385022 0.240422
vt 0.636513 0.150366
vt 0.385416 0.995117
vt 0.385022 0.004883
vt 0.636513 0.374353
vt 0.147550 0.103020
vt 0.551918 0.464015
vt 0.544606 0.726960
vt 0.105330 0.145862
vt 0.891360 0.146264
vt 0.461205 0.727047
vt 0.453665 0.464015
vt 0.849140 0.103423
vt 0.537054 0.591080
vt 0.026718 0.004883
vt 0.534032 0.617692
vt 0.001411 0.018955
vt 0.995310 0.018982
vt 0.471630 0.617724
vt 0.468453 0.591115
vt 0.970006 0.004883
vn 0.0000 -1.0000 -0.0000
vn -0.9963 0.0858 0.0000
vn -0.0099 0.3372 0.9414
vn -0.0009 0.3432 0.9393
vn -0.0008 0.3408 0.9401
vn -0.0087 0.3350 0.9422
vn -0.0162 0.3621 0.9320
vn -0.0116 0.3360 0.9418
vn -0.0197 0.3622 0.9319
vn 0.7906 0.6124 -0.0000
vn -0.0083 0.3194 0.9476
vn -0.0106 0.3179 0.9481
vn -0.0114 0.3346 0.9423
vn -0.9307 -0.3657 -0.0000
vn -0.9307 -0.3658 -0.0000
vn -0.0322 0.2388 0.9705
vn -0.0145 0.2330 0.9724
vn -0.0151 0.2323 0.9725
vn -0.0338 0.2382 0.9706
vn -0.9952 -0.0982 -0.0000
vn -0.9951 -0.0986 -0.0000
vn -0.0163 0.2950 0.9554
vn -0.0185 0.3031 0.9528
vn -0.0133 0.2304 0.9730
vn -0.0160 0.2171 0.9760
vn -0.0175 0.2157 0.9763
vn -0.0146 0.2304 0.9730
vn 0.7108 0.7034 -0.0000
vn 0.7569 0.6536 0.0000
vn -0.0145 0.2330 -0.9724
vn -0.0321 0.2388 -0.9705
vn -0.0338 0.2382 -0.9706
vn -0.0151 0.2323 -0.9725
vn -0.0116 0.3359 -0.9418
vn -0.0163 0.2950 -0.9554
vn -0.0184 0.3030 -0.9528
vn -0.0114 0.3346 -0.9423
vn -0.0133 0.2304 -0.9730
vn -0.0194 0.3621 -0.9319
vn -0.0099 0.3371 -0.9414
vn -0.0160 0.3621 -0.9320
vn -0.0160 0.2171 -0.9760
vn -0.0146 0.2304 -0.9730
vn -0.0175 0.2157 -0.9763
vn -0.0106 0.3179 -0.9481
vn -0.0083 0.3193 -0.9476
vn -0.0087 0.3350 -0.9422
vn -0.0009 0.3435 -0.9392
vn -0.0009 0.3411 -0.9400
vn -0.7757 -0.6311 0.0017
vn -0.7763 -0.6304 0.0020
vn -0.7763 -0.6303 0.0026
vn -0.7757 -0.6311 0.0019
vn 0.0143 0.1264 0.9919
vn 0.0222 0.1296 0.9913
vn 0.0222 0.1293 0.9914
vn 0.0133 0.1256 0.9920
vn -0.8714 -0.4906 0.0000
vn -0.8713 -0.4907 0.0000
vn -0.7755 -0.6313 0.0015
vn -0.0144 0.1807 0.9834
vn -0.0093 0.1755 0.9844
vn 0.0235 0.1285 0.9914
vn 0.0204 0.1211 0.9924
vn 0.0193 0.1198 0.9926
vn 0.0226 0.1275 0.9916
vn 0.6336 0.7737 -0.0016
vn 0.6331 0.7740 -0.0014
vn 0.6331 0.7740 -0.0016
vn 0.6336 0.7737 -0.0019
vn 0.6752 0.7377 -0.0000
vn 0.6751 0.7377 -0.0000
vn 0.6330 0.7742 -0.0014
vn 0.6325 0.7745 -0.0016
vn 0.6325 0.7745 -0.0018
vn 0.6330 0.7742 -0.0017
vn 0.0217 0.1233 -0.9921
vn 0.0243 0.1296 -0.9913
vn 0.0236 0.1287 -0.9914
vn 0.0208 0.1221 -0.9923
vn -0.0093 0.1755 -0.9844
vn -0.0144 0.1807 -0.9834
vn 0.0232 0.1305 -0.9912
vn 0.0165 0.1278 -0.9917
vn 0.0156 0.1271 -0.9918
vn 0.0232 0.1302 -0.9912
vn -0.7750 -0.6319 0.0022
vn -0.7756 -0.6313 0.0019
vn -0.7750 -0.6320 0.0024
vn -0.7757 -0.6310 0.0043
vn -0.7754 -0.6314 0.0043
vn -0.8737 0.4864 0.0056
vn -0.8737 0.4864 0.0057
vn -0.8738 0.4863 0.0057
vn -0.8738 0.4863 0.0056
vn -0.8737 0.4865 0.0056
vn -0.8737 0.4865 0.0057
vn 0.0040 0.1136 0.9935
vn 0.0077 0.1110 0.9938
vn 0.6334 0.7738 -0.0035
vn 0.6330 0.7741 -0.0035
vn -0.8738 0.4862 0.0057
vn 0.0109 0.1146 -0.9933
vn 0.0078 0.1168 -0.9931
vn 0.0000 0.3625 0.9320
vn 0.0000 0.3244 0.9459
vn -0.0222 0.3134 0.9494
vn -0.9950 -0.0999 0.0000
vn 0.7570 0.6534 -0.0000
vn -0.0129 0.2818 0.9594
vn -0.9951 -0.0994 -0.0000
vn -0.0221 0.3132 -0.9494
vn -0.0129 0.2819 -0.9594
vn 0.7571 0.6533 0.0000
vn -0.0000 0.3625 -0.9320
vn 0.0000 0.3244 -0.9459
vn -0.0258 0.1903 0.9814
vn -0.8721 -0.4894 -0.0000
vn 0.6758 0.7371 0.0000
vn -0.0022 0.1671 0.9859
vn -0.0023 0.1673 -0.9859
vn 0.6754 0.7375 0.0000
vn -0.8717 -0.4901 0.0000
vn -0.0256 0.1901 -0.9814
vn -0.7765 -0.6301 0.0045
vn -0.0025 0.1142 0.9935
vn 0.6337 0.7736 -0.0036
vn 0.0100 0.1074 0.9942
vn 0.0128 0.1115 -0.9937
vn 0.6324 0.7746 -0.0036
vn -0.7748 -0.6322 0.0044
vn -0.8738 0.4862 0.0056
vn 0.0022 0.1173 -0.9931
usemtl grassBladeTexture
s 1
f 1/1/1 2/2/1 3/3/1 4/4/1
f 2/2/2 5/5/2 6/6/2 3/3/2
f 7/7/3 8/8/4 9/9/5 10/10/6
f 8/11/1 1/1/1 11/12/1 9/13/1
f 5/5/2 12/14/2 13/15/2 14/16/2
f 12/17/7 7/7/3 15/18/8 13/19/9
f 16/20/10 17/21/10 18/22/10 19/23/10
f 17/24/1 11/12/1 20/25/1 18/26/1
f 10/10/6 21/27/11 22/28/12 23/29/13
f 21/30/10 16/20/10 24/31/10 22/32/10
f 25/33/14 26/34/15 27/35/14 28/36/14
f 26/37/16 29/38/17 30/39/18 27/40/19
f 14/16/2 31/41/20 32/42/21 33/43/2
f 31/41/20 25/33/14 34/44/14 32/42/21
f 29/38/17 35/45/22 36/46/23 37/47/24
f 35/45/22 15/18/8 23/29/13 36/46/23
f 37/47/24 38/48/25 39/49/26 40/50/27
f 38/51/28 41/52/28 42/53/28 39/54/28
f 41/52/28 43/55/29 44/56/29 45/57/28
f 43/55/29 24/31/10 46/58/10 44/56/29
f 47/59/30 48/60/31 49/61/32 50/62/33
f 48/63/15 34/44/14 51/64/15 49/65/15
f 52/66/34 53/67/35 54/68/36 55/69/37
f 53/67/35 47/59/30 56/70/38 54/68/36
f 33/43/2 57/71/2 58/72/2 6/6/2
f 57/73/39 52/66/34 59/74/40 58/75/41
f 45/57/28 60/76/28 61/77/28 62/78/28
f 60/79/42 56/70/38 63/80/43 61/81/44
f 55/69/37 64/82/45 65/83/46 66/84/47
f 64/85/10 46/58/10 19/23/10 65/86/10
f 4/4/1 67/87/1 68/88/1 20/25/1
f 67/89/48 59/74/40 66/84/47 68/90/49
f 69/91/50 70/92/51 71/93/52 72/94/53
f 70/95/54 73/96/55 74/97/56 71/98/57
f 28/36/14 75/99/58 76/100/59 51/64/15
f 75/99/58 69/91/50 77/101/60 76/100/59
f 73/96/55 78/102/61 79/103/62 80/104/63
f 78/102/61 30/39/18 40/50/27 79/103/62
f 80/104/63 81/105/64 82/106/65 83/107/66
f 81/108/67 84/109/68 85/110/69 82/111/70
f 84/109/68 86/112/71 87/113/72 88/114/73
f 86/112/71 42/53/28 62/78/28 87/113/72
f 88/114/73 89/115/74 90/116/75 91/117/76
f 89/118/77 92/119/78 93/120/79 90/121/80
f 92/119/78 94/122/81 95/123/82 96/124/83
f 94/122/81 63/80/43 50/62/33 95/123/82
f 96/124/83 97/125/84 98/126/85 99/127/86
f 97/128/87 77/101/60 100/129/88 98/130/89
f 72/94/53 101/131/90 102/132/91 100/129/88
f 101/131/92 103/133/93 104/134/94 102/132/95
f 103/133/93 105/135/96 106/136/97 107/137/93
f 105/138/98 74/97/56 83/107/66 106/139/99
f 107/137/93 108/140/93 109/141/94 110/142/94
f 108/140/100 85/110/69 91/117/76 109/141/101
f 110/142/94 111/143/102 112/144/102 104/134/94
f 111/145/103 93/120/79 99/127/86 112/146/104
f 7/7/3 10/10/6 23/29/13 15/18/8
f 103/133/93 107/137/93 110/142/94 104/134/94
f 52/66/34 55/69/37 66/84/47 59/74/40
f 4/4/1 20/25/1 11/12/1 1/1/1
f 16/20/10 19/23/10 46/58/10 24/31/10
f 6/6/2 5/5/2 14/16/2 33/43/2
f 29/38/17 37/47/24 40/50/27 30/39/18
f 41/52/28 45/57/28 62/78/28 42/53/28
f 56/70/38 47/59/30 50/62/33 63/80/43
f 34/44/14 25/33/14 28/36/14 51/64/15
f 73/96/55 80/104/63 83/107/66 74/97/56
f 84/109/68 88/114/73 91/117/76 85/110/69
f 92/119/78 96/124/83 99/127/86 93/120/79
f 77/101/60 69/91/50 72/94/53 100/129/88
f 12/14/2 5/5/2 2/2/2 113/147/2
f 2/2/1 1/1/1 8/11/1 113/147/1
f 8/8/4 7/7/3 12/17/7 113/148/105
f 9/13/1 11/12/1 17/24/1 114/149/1
f 17/21/10 16/20/10 21/30/10 114/150/10
f 21/27/11 10/10/6 9/9/5 114/151/106
f 35/45/22 29/38/17 26/37/16 115/152/107
f 26/34/15 25/33/14 31/41/20 115/153/108
f 31/41/20 14/16/2 13/15/2 115/153/108
f 13/19/9 15/18/8 35/45/22 115/152/107
f 43/55/29 41/52/28 38/51/28 116/154/109
f 38/48/25 37/47/24 36/46/23 116/155/110
f 36/46/23 23/29/13 22/28/12 116/155/110
f 22/32/10 24/31/10 43/55/29 116/154/109
f 32/42/21 34/44/14 48/63/15 117/156/111
f 48/60/31 47/59/30 53/67/35 117/157/112
f 53/67/35 52/66/34 57/73/39 117/157/112
f 57/71/2 33/43/2 32/42/21 117/156/111
f 54/68/36 56/70/38 60/79/42 118/158/113
f 60/76/28 45/57/28 44/56/29 118/159/114
f 44/56/29 46/58/10 64/85/10 118/159/114
f 64/82/45 55/69/37 54/68/36 118/158/113
f 67/87/1 4/4/1 3/3/1 119/160/1
f 3/3/2 6/6/2 58/72/2 119/160/2
f 58/75/41 59/74/40 67/89/48 119/161/115
f 65/86/10 19/23/10 18/22/10 120/162/10
f 18/26/1 20/25/1 68/88/1 120/163/1
f 68/90/49 66/84/47 65/83/46 120/164/116
f 78/102/61 73/96/55 70/95/54 121/165/117
f 70/92/51 69/91/50 75/99/58 121/166/118
f 75/99/58 28/36/14 27/35/14 121/166/118
f 27/40/19 30/39/18 78/102/61 121/165/117
f 86/112/71 84/109/68 81/108/67 122/167/119
f 81/105/64 80/104/63 79/103/62 122/168/120
f 79/103/62 40/50/27 39/49/26 122/168/120
f 39/54/28 42/53/28 86/112/71 122/167/119
f 94/122/81 92/119/78 89/118/77 123/169/121
f 89/115/74 88/114/73 87/113/72 123/170/122
f 87/113/72 62/78/28 61/77/28 123/170/122
f 61/81/44 63/80/43 94/122/81 123/169/121
f 76/100/59 77/101/60 97/128/87 124/171/123
f 97/125/84 96/124/83 95/123/82 124/172/124
f 95/123/82 50/62/33 49/61/32 124/172/124
f 49/65/15 51/64/15 76/100/59 124/171/123
f 105/135/96 103/133/93 101/131/92 125/173/96
f 101/131/90 72/94/53 71/93/52 125/173/125
f 71/98/57 74/97/56 105/138/98 125/174/126
f 82/111/70 85/110/69 108/140/100 126/175/127
f 108/140/93 107/137/93 106/136/97 126/175/97
f 106/139/99 83/107/66 82/106/65 126/176/128
f 90/121/80 93/120/79 111/145/103 127/177/129
f 111/143/102 110/142/94 109/141/94 127/178/102
f 109/141/101 91/117/76 90/116/75 127/178/130
f 98/130/89 100/129/88 102/132/91 128/179/131
f 102/132/95 104/134/94 112/144/102 128/179/132
f 112/146/104 99/127/86 98/126/85 128/180/133
