{
  "accessors": [
    {
      "bufferView": 0,
      "componentType": 5125,
      "count": 67008,
      "type": "SCALAR"
    },
    {
      "bufferView": 1,
      "componentType": 5126,
      "count": 12431,
      "max": [
        1.40303981304169,
        0.195712774991989,
        1.13284087181091
      ],
      "min": [
        0.0921843647956848,
        -0.153428092598915,
        -1.13558530807495
      ],
      "type": "VEC3"
    },
    {
      "bufferView": 2,
      "componentType": 5126,
      "count": 12431,
      "type": "VEC3"
    },
    {
      "bufferView": 3,
      "componentType": 5126,
      "count": 12431,
      "type": "VEC2"
    },
    {
      "bufferView": 4,
      "componentType": 5125,
      "count": 67008,
      "type": "SCALAR"
    },
    {
      "bufferView": 5,
      "componentType": 5126,
      "count": 12382,
      "max": [
        -0.0906212776899338,
        0.195712774991989,
        1.13284027576447
      ],
      "min": [
        -1.40147650241852,
        -0.153428092598915,
        -1.13558554649353
      ],
      "type": "VEC3"
    },
    {
      "bufferView": 6,
      "componentType": 5126,
      "count": 12382,
      "type": "VEC3"
    },
    {
      "bufferView": 7,
      "componentType": 5126,
      "count": 12382,
      "type": "VEC2"
    },
    {
      "bufferView": 8,
      "componentType": 5125,
      "count": 69312,
      "type": "SCALAR"
    },
    {
      "bufferView": 9,
      "componentType": 5126,
      "count": 13060,
      "max": [
        0.429240256547928,
        0.117652870714664,
        1.08935070037842
      ],
      "min": [
        -0.427363395690918,
        -0.153428107500076,
        -1.09209370613098
      ],
      "type": "VEC3"
    },
    {
      "bufferView": 10,
      "componentType": 5126,
      "count": 13060,
      "type": "VEC3"
    },
    {
      "bufferView": 11,
      "componentType": 5126,
      "count": 13060,
      "type": "VEC2"
    }
  ],
  "asset": {
    "generator": "Substance Painter 7.1.1",
    "version": "2.0"
  },
  "bufferViews": [
    {
      "buffer": 0,
      "byteLength": 268032,
      "target": 34963
    },
    {
      "buffer": 0,
      "byteLength": 149172,
      "byteOffset": 268032,
      "target": 34962
    },
    {
      "buffer": 0,
      "byteLength": 149172,
      "byteOffset": 417204,
      "target": 34962
    },
    {
      "buffer": 0,
      "byteLength": 99448,
      "byteOffset": 566376,
      "target": 34962
    },
    {
      "buffer": 0,
      "byteLength": 268032,
      "byteOffset": 665824,
      "target": 34963
    },
    {
      "buffer": 0,
      "byteLength": 148584,
      "byteOffset": 933856,
      "target": 34962
    },
    {
      "buffer": 0,
      "byteLength": 148584,
      "byteOffset": 1082440,
      "target": 34962
    },
    {
      "buffer": 0,
      "byteLength": 99056,
      "byteOffset": 1231024,
      "target": 34962
    },
    {
      "buffer": 0,
      "byteLength": 277248,
      "byteOffset": 1330080,
      "target": 34963
    },
    {
      "buffer": 0,
      "byteLength": 156720,
      "byteOffset": 1607328,
      "target": 34962
    },
    {
      "buffer": 0,
      "byteLength": 156720,
      "byteOffset": 1764048,
      "target": 34962
    },
    {
      "buffer": 0,
      "byteLength": 104480,
      "byteOffset": 1920768,
      "target": 34962
    }
  ],
  "buffers": [
    {
      "byteLength": 2025248,
      "uri": "bearTrap.bin"
    }
  ],
  "images": [
    {
      "uri": "lambert2_baseColor.png"
    },
    {
      "uri": "lambert2_occlusionRoughnessMetallic.png"
    },
    {
      "uri": "lambert2_normal.png"
    }
  ],
  "materials": [
    {
      "alphaMode": "OPAQUE",
      "name": "lambert2",
      "normalTexture": {
        "index": 2
      },
      "occlusionTexture": {
        "index": 1
      },
      "pbrMetallicRoughness": {
        "baseColorTexture": {
          "index": 0
        },
        "metallicRoughnessTexture": {
          "index": 1
        }
      }
    }
  ],
  "meshes": [
    {
      "name": "teeth1Geo",
      "primitives": [
        {
          "attributes": {
            "NORMAL": 2,
            "POSITION": 1,
            "TEXCOORD_0": 3
          },
          "indices": 0,
          "material": 0,
          "mode": 4
        }
      ]
    },
    {
      "name": "teeth2Geo",
      "primitives": [
        {
          "attributes": {
            "NORMAL": 6,
            "POSITION": 5,
            "TEXCOORD_0": 7
          },
          "indices": 4,
          "material": 0,
          "mode": 4
        }
      ]
    },
    {
      "name": "bearTrapGeo",
      "primitives": [
        {
          "attributes": {
            "NORMAL": 10,
            "POSITION": 9,
            "TEXCOORD_0": 11
          },
          "indices": 8,
          "material": 0,
          "mode": 4
        }
      ]
    }
  ],
  "nodes": [
    {
      "children": [
        1
      ],
      "name": "RootNode"
    },
    {
      "children": [
        2,
        3,
        5
      ],
      "name": "bearTrapGeo"
    },
    {
      "mesh": 2,
      "name": "bearTrapGeo"
    },
    {
      "children": [
        4
      ],
      "name": "teeth1Geo"
    },
    {
      "mesh": 0,
      "name": "teeth1Geo"
    },
    {
      "children": [
        6
      ],
      "name": "teeth2Geo"
    },
    {
      "mesh": 1,
      "name": "teeth2Geo"
    }
  ],
  "samplers": [
    {
      "magFilter": 9729,
      "minFilter": 9985,
      "wrapS": 10497,
      "wrapT": 10497
    }
  ],
  "scene": 0,
  "scenes": [
    {
      "name": "Scene",
      "nodes": [
        0
      ]
    }
  ],
  "textures": [
    {
      "sampler": 0,
      "source": 0
    },
    {
      "sampler": 0,
      "source": 1
    },
    {
      "sampler": 0,
      "source": 2
    }
  ]
}